<svg width="20" height="21" viewBox="0 0 20 21" fill="none" xmlns="http://www.w3.org/2000/svg">
<path d="M9.57031 0.617188C9.84375 0.5 10.1172 0.5 10.3906 0.617188L16.9531 3.74219C17.4219 3.9375 17.6172 4.52344 17.3828 4.99219C17.1875 5.42188 16.6797 5.61719 16.2109 5.46094V8.3125C16.2109 9.40625 15.4688 10.2656 14.4531 10.4609L15.8203 18.625H19.0625C19.5703 18.625 20 19.0547 20 19.5625C20 20.1094 19.5703 20.5 19.0625 20.5H0.9375C0.390625 20.5 0 20.1094 0 19.5625C0 19.0547 0.390625 18.625 0.9375 18.625H4.14062L5.50781 10.4609C4.49219 10.2656 3.71094 9.40625 3.71094 8.3125V5.46094C3.28125 5.61719 2.77344 5.42188 2.57812 4.99219C2.34375 4.52344 2.53906 3.9375 3.00781 3.74219L9.57031 0.617188ZM10 2.49219L5.625 4.5625V5.5H14.375V4.5625L10 2.49219ZM5.625 7.375V8.3125C5.625 8.50781 5.74219 8.625 5.9375 8.625H14.0625C14.2188 8.625 14.375 8.50781 14.375 8.3125V7.375H5.625ZM12.8906 18.625L10 16.1641L7.07031 18.625H12.8906ZM7.38281 10.5L7.26562 11.3984L10 13.7031L12.7344 11.3984L12.5781 10.5H7.38281ZM6.875 13.5469L6.36719 16.7891L8.51562 14.9531L6.875 13.5469ZM11.4453 14.9531L13.6328 16.7891L13.0859 13.5469L11.4453 14.9531Z" fill="#606060"/>
</svg>
