<svg width="25" height="21" viewBox="0 0 25 21" fill="none" xmlns="http://www.w3.org/2000/svg">
<path d="M13.125 2.6875V19.5625C13.125 20.1094 12.6953 20.5 12.1875 20.5C11.6406 20.5 11.25 20.1094 11.25 19.5625V2.6875C11.25 1.51562 12.2266 0.5 13.4375 0.5H17.8125C18.9844 0.5 20 1.51562 20 2.6875V8H21.25V5.1875C21.25 4.67969 21.6406 4.25 22.1875 4.25C22.6953 4.25 23.125 4.67969 23.125 5.1875V8.03906C24.1797 8.19531 25 9.09375 25 10.1875V19.5625C25 20.1094 24.5703 20.5 24.0625 20.5C23.5156 20.5 23.125 20.1094 23.125 19.5625V10.1875C23.125 10.0312 22.9688 9.875 22.8125 9.875H22.1875H19.0625C18.5156 9.875 18.125 9.48438 18.125 8.9375V2.6875C18.125 2.53125 17.9688 2.375 17.8125 2.375H13.4375C13.2422 2.375 13.125 2.53125 13.125 2.6875ZM14.375 4.25C14.375 3.9375 14.6484 3.625 15 3.625H16.25C16.5625 3.625 16.875 3.9375 16.875 4.25V5.5C16.875 5.85156 16.5625 6.125 16.25 6.125H15C14.6484 6.125 14.375 5.85156 14.375 5.5V4.25ZM15 7.375H16.25C16.5625 7.375 16.875 7.6875 16.875 8V9.25C16.875 9.60156 16.5625 9.875 16.25 9.875H15C14.6484 9.875 14.375 9.60156 14.375 9.25V8C14.375 7.6875 14.6484 7.375 15 7.375ZM14.375 11.75C14.375 11.4375 14.6484 11.125 15 11.125H16.25C16.5625 11.125 16.875 11.4375 16.875 11.75V13C16.875 13.3516 16.5625 13.625 16.25 13.625H15C14.6484 13.625 14.375 13.3516 14.375 13V11.75ZM20 11.125H21.25C21.5625 11.125 21.875 11.4375 21.875 11.75V13C21.875 13.3516 21.5625 13.625 21.25 13.625H20C19.6484 13.625 19.375 13.3516 19.375 13V11.75C19.375 11.4375 19.6484 11.125 20 11.125ZM19.375 15.5C19.375 15.1875 19.6484 14.875 20 14.875H21.25C21.5625 14.875 21.875 15.1875 21.875 15.5V16.75C21.875 17.1016 21.5625 17.375 21.25 17.375H20C19.6484 17.375 19.375 17.1016 19.375 16.75V15.5ZM8.75 6.75C8.75 6.98438 8.71094 7.17969 8.67188 7.375C9.45312 7.92188 10 8.85938 10 9.875C10 11.6328 8.59375 13 6.875 13H6.25V19.25C6.25 19.9531 5.66406 20.5 5 20.5C4.29688 20.5 3.75 19.9531 3.75 19.25V13H3.125C1.36719 13 0 11.6328 0 9.875C0 8.85938 0.507812 7.92188 1.28906 7.375C1.25 7.17969 1.25 6.98438 1.25 6.75C1.25 4.67969 2.89062 3 5 3C7.07031 3 8.75 4.67969 8.75 6.75Z" fill="#606060"/>
</svg>
