<svg width="24" height="16" viewBox="0 0 24 16" fill="none" xmlns="http://www.w3.org/2000/svg">
<path d="M4.125 0.585938C4.47656 0.234375 4.98438 0.234375 5.33594 0.585938C6.19531 1.28906 7.36719 1.875 8.46094 1.875C9.59375 1.875 10.7656 1.28906 11.5859 0.585938C11.9766 0.234375 12.4844 0.234375 12.8359 0.585938C13.6953 1.28906 14.8672 1.875 15.9609 1.875C17.0938 1.875 18.2656 1.28906 19.0859 0.585938C19.4375 0.234375 19.9844 0.234375 20.3359 0.585938C21 1.17188 21.8984 1.60156 22.7578 1.79688C23.2266 1.91406 23.5781 2.42188 23.4609 2.92969C23.3438 3.4375 22.8359 3.75 22.3281 3.63281C21.1953 3.39844 20.2969 2.85156 19.7109 2.46094C18.6172 3.20312 17.3281 3.78906 15.9609 3.78906C14.6328 3.78906 13.3047 3.20312 12.2109 2.46094C11.1172 3.20312 9.82812 3.78906 8.46094 3.78906C7.13281 3.78906 5.80469 3.20312 4.71094 2.46094C4.16406 2.85156 3.22656 3.39844 2.13281 3.63281C1.625 3.75 1.11719 3.4375 1 2.92969C0.882812 2.42188 1.19531 1.91406 1.70312 1.79688C2.60156 1.60156 3.42188 1.13281 4.125 0.585938ZM4.125 11.8359C4.47656 11.4844 4.98438 11.4844 5.33594 11.8359C6.19531 12.5391 7.36719 13.125 8.46094 13.125C9.59375 13.125 10.7656 12.5391 11.5859 11.8359C11.9766 11.4844 12.4844 11.4844 12.8359 11.8359C13.6953 12.5391 14.8672 13.125 15.9609 13.125C17.0938 13.125 18.2656 12.5391 19.0859 11.8359C19.4375 11.4844 19.9844 11.4844 20.3359 11.8359C21 12.4219 21.8984 12.8516 22.7578 13.0469C23.2266 13.1641 23.5781 13.6719 23.4609 14.1797C23.3438 14.6875 22.8359 15 22.3281 14.8828C21.1953 14.6484 20.2969 14.1016 19.7109 13.7109C18.6172 14.4531 17.3281 15.0391 15.9609 15.0391C14.6328 15.0391 13.3047 14.4531 12.2109 13.7109C11.1172 14.4531 9.82812 15.0391 8.46094 15.0391C7.13281 15.0391 5.80469 14.4531 4.71094 13.7109C4.16406 14.1016 3.22656 14.6484 2.13281 14.8828C1.625 15 1.11719 14.6875 1 14.1797C0.882812 13.6719 1.19531 13.1641 1.70312 13.0469C2.5625 12.8516 3.42188 12.4219 4.08594 11.8359H4.125ZM5.33594 6.21094C6.19531 6.91406 7.36719 7.5 8.46094 7.5C9.59375 7.5 10.7656 6.91406 11.5859 6.21094C11.9766 5.85938 12.4844 5.85938 12.8359 6.21094C13.6953 6.91406 14.8672 7.5 15.9609 7.5C17.0938 7.5 18.2656 6.91406 19.0859 6.21094C19.4375 5.85938 19.9844 5.85938 20.3359 6.21094C21 6.79688 21.8984 7.22656 22.7578 7.42188C23.2266 7.53906 23.5781 8.04688 23.4609 8.55469C23.3438 9.0625 22.8359 9.375 22.3281 9.25781C21.1953 9.02344 20.2969 8.47656 19.7109 8.08594C18.6172 8.82812 17.3281 9.41406 15.9609 9.41406C14.6328 9.41406 13.3047 8.82812 12.2109 8.08594C11.1172 8.82812 9.82812 9.41406 8.46094 9.41406C7.13281 9.41406 5.80469 8.82812 4.71094 8.08594C4.16406 8.47656 3.22656 9.02344 2.13281 9.25781C1.625 9.375 1.11719 9.0625 1 8.55469C0.882812 8.04688 1.19531 7.53906 1.70312 7.42188C2.5625 7.22656 3.42188 6.79688 4.08594 6.21094C4.4375 5.89844 4.98438 5.89844 5.33594 6.21094Z" fill="#606060"/>
</svg>
